<svg aria-hidden="true" style="position: absolute; width: 0; height: 0; overflow: hidden;" version="1.1" xmlns="http://www.w3.org/2000/svg" xmlns:xlink="http://www.w3.org/1999/xlink">
<defs>
<symbol id="icon-envelope" viewBox="0 0 48 48">
<path d="M0 38c0 2.21 1.79 4 4 4h40c2.21 0 4-1.79 4-4l-0-27c0-2.21-1.79-4-4-4l-40 0c-2.21 0-4 1.79-4 4v27zM14.72 24.53l-9.15-9.21c-0.759-0.76-0.759-1.99 0-2.75 0.761-0.76 1.991-0.76 2.75 0l14.6 14.619c0.59 0.58 1.561 0.58 2.141 0l14.619-14.619c0.76-0.76 1.99-0.76 2.75 0s0.76 1.99 0 2.75l-9.16 9.21 9.16 9.149c0.76 0.76 0.76 1.99 0 2.75s-1.99 0.76-2.75 0l-9.15-9.14c0 0-2.859 2.91-3.379 3.43-0.811 0.791-1.931 1.281-3.151 1.281-1.24 0-2.36-0.5-3.17-1.311-0.53-0.52-3.37-3.399-3.37-3.399l-9.141 9.14c-0.759 0.76-1.989 0.76-2.75 0-0.759-0.76-0.759-1.99 0-2.75l9.151-9.15z"></path>
</symbol>
<symbol id="icon-bubb" viewBox="0 0 36 32">
<path d="M15 0v0c8.284 0 15 5.435 15 12.139s-6.716 12.139-15 12.139c-0.796 0-1.576-0.051-2.339-0.147-3.222 3.209-6.943 3.785-10.661 3.869v-0.785c2.008-0.98 3.625-2.765 3.625-4.804 0-0.285-0.022-0.564-0.063-0.837-3.392-2.225-5.562-5.625-5.562-9.434 0-6.704 6.716-12.139 15-12.139zM31.125 27.209c0 1.748 1.135 3.278 2.875 4.118v0.673c-3.223-0.072-6.181-0.566-8.973-3.316-0.661 0.083-1.337 0.126-2.027 0.126-2.983 0-5.732-0.805-7.925-2.157 4.521-0.016 8.789-1.464 12.026-4.084 1.631-1.32 2.919-2.87 3.825-4.605 0.961-1.84 1.449-3.799 1.449-5.825 0-0.326-0.014-0.651-0.039-0.974 2.268 1.873 3.664 4.426 3.664 7.24 0 3.265-1.88 6.179-4.82 8.086-0.036 0.234-0.055 0.474-0.055 0.718z"></path>
</symbol>
<symbol id="icon-user" viewBox="0 0 32 32">
<path d="M18 22.082v-1.649c2.203-1.241 4-4.337 4-7.432 0-4.971 0-9-6-9s-6 4.029-6 9c0 3.096 1.797 6.191 4 7.432v1.649c-6.784 0.555-12 3.888-12 7.918h28c0-4.030-5.216-7.364-12-7.918z"></path>
</symbol>

</symbol>
</defs>
</svg>
