<svg aria-hidden="true" style="position: absolute; width: 0; height: 0; overflow: hidden;" version="1.1" xmlns="http://www.w3.org/2000/svg" xmlns:xlink="http://www.w3.org/1999/xlink">
<defs>
<symbol id="vector" viewBox="0 0 28 32">
<path  d="M13.596 31.538v-7.901l0.159 0.046 0.001 0.001c0.229 0.066 0.567 0.066 0.796 0l0.001-0.001 0.159-0.046v7.901h1.73v-8.481l1.179-0.537c2.469-1.138 4.263-2.372 6.008-4.141h0.001c2.786-2.829 4.217-6.052 4.217-9.561l-0.005-0.359c-0.111-3.686-2.105-6.674-5.209-7.716l0.001-0.001c-0.689-0.24-1.055-0.274-2.316-0.263-0.658 0.006-1.070 0.020-1.445 0.074-0.376 0.054-0.709 0.146-1.208 0.302l-0.002 0.001c-1.187 0.385-2.355 0.994-3.132 1.632l-0.002 0.001-0.346 0.291-0.542-0.401v-0.001c-1.672-1.23-3.385-1.829-5.396-1.911h-0.001c-0.347-0.012-0.718-0.012-1.035-0.002-0.312 0.010-0.585 0.031-0.732 0.063v-0.001c-2.877 0.603-5.098 2.964-5.821 6.153v0.001c-0.134 0.565-0.196 1.38-0.194 2.199 0.003 0.821 0.071 1.661 0.205 2.276l0.119 0.502c0.635 2.492 1.904 4.716 3.835 6.661 1.839 1.86 3.455 2.99 6.008 4.163l1.238 0.581v8.471h1.73zM17.359 17.028c-0.186 0.165-0.496 0.159-0.727-0.065-0.048-0.047-0.075-0.080-0.097-0.135-0.024-0.061-0.045-0.157-0.060-0.332-0.030-0.351-0.034-0.966-0.034-2.135 0-1.289-0.018-2.058-0.099-2.57-0.041-0.259-0.099-0.459-0.182-0.631s-0.19-0.309-0.318-0.446c-0.026-0.028-0.062-0.056-0.098-0.081-0.039-0.027-0.087-0.058-0.142-0.091-0.111-0.067-0.257-0.149-0.427-0.242-0.34-0.184-0.78-0.411-1.238-0.636l-0.002-0.001h-0.001c-1.025-0.482-2.046-1.077-2.651-1.541l-0.001-0.001c-1.489-1.115-2.572-1.838-3.593-2.33-1.023-0.493-1.978-0.75-3.209-0.942l0.001-0.001c-0.349-0.058-0.672-0.112-0.91-0.154-0.096-0.017-0.178-0.031-0.242-0.043 0.049-0.085 0.128-0.2 0.231-0.331 0.161-0.204 0.369-0.438 0.582-0.646l0.214-0.198c1.335-1.188 2.851-1.572 4.825-1.21l0.191 0.038c0.46 0.1 1.008 0.263 1.311 0.381 0.368 0.151 0.865 0.423 1.334 0.717 0.472 0.296 0.903 0.607 1.141 0.832h0.001c0.193 0.182 0.36 0.327 0.516 0.425 0.158 0.099 0.315 0.156 0.486 0.15 0.168-0.007 0.329-0.074 0.496-0.182s0.352-0.262 0.572-0.459l0.001-0.001c1.347-1.221 3.527-2.061 5.314-2.061 2.395 0 4.607 1.879 5.316 4.561l0.001 0.001c0.128 0.474 0.244 1.247 0.255 1.707v0.003c0.012 0.263 0.018 0.446-0.002 0.588-0.018 0.134-0.059 0.222-0.134 0.302-0.081 0.086-0.213 0.17-0.438 0.273-0.224 0.103-0.523 0.218-0.927 0.371-1.288 0.49-2.366 0.731-4.23 0.937h-0.001c-0.597 0.069-0.97 0.122-1.24 0.193-0.279 0.073-0.45 0.166-0.647 0.308l-0.002 0.002c-0.195 0.145-0.358 0.287-0.488 0.459-0.132 0.173-0.225 0.371-0.292 0.622-0.131 0.492-0.159 1.206-0.159 2.378 0 0.885-0.006 1.404-0.034 1.723-0.028 0.321-0.075 0.404-0.125 0.456l-0.039 0.039zM13.293 21.717l-0.002-0.001c-2.718-0.916-5.116-2.371-7.043-4.236h-0.001c-2.443-2.345-3.716-4.817-4.032-7.743-0.058-0.54-0.043-1.282 0.020-1.947 0.031-0.332 0.074-0.641 0.126-0.893 0.047-0.232 0.101-0.4 0.149-0.496 0.005-0.001 0.011-0.003 0.017-0.004 0.046-0.008 0.114-0.013 0.206-0.014 0.181-0.002 0.43 0.012 0.715 0.040 0.568 0.056 1.259 0.164 1.802 0.295l0.224 0.059c1.129 0.319 2.383 0.962 3.538 1.819l0.001 0.001h0.001c0.522 0.381 1.185 0.865 1.481 1.084l0.325 0.23c0.807 0.548 1.933 1.164 2.814 1.531 0.239 0.102 0.472 0.213 0.654 0.31 0.091 0.049 0.168 0.093 0.225 0.13 0.029 0.019 0.051 0.035 0.068 0.048s0.023 0.019 0.023 0.020l0.002 0.003c-0.006-0.007-0.001-0.004 0.008 0.024 0.008 0.026 0.017 0.064 0.025 0.117 0.017 0.106 0.031 0.26 0.042 0.47 0.022 0.42 0.031 1.051 0.031 1.957 0 1.089 0.008 1.734 0.041 2.156 0.034 0.429 0.094 0.641 0.198 0.864l0.080 0.159c0.195 0.359 0.443 0.634 0.755 0.825 0.356 0.218 0.783 0.317 1.284 0.317 0.324-0 0.607-0.049 0.871-0.165s0.499-0.294 0.734-0.541h-0.001c0.131-0.134 0.24-0.262 0.327-0.416 0.087-0.156 0.148-0.33 0.189-0.553 0.082-0.438 0.096-1.086 0.096-2.183 0-0.629-0.001-1.090 0.018-1.435 0.020-0.348 0.060-0.551 0.127-0.676 0.059-0.11 0.145-0.173 0.311-0.216 0.178-0.047 0.422-0.064 0.779-0.094h0.001c1.434-0.128 3.214-0.512 4.401-0.944h0.001c0.294-0.109 0.566-0.2 0.767-0.26 0.054-0.016 0.102-0.027 0.143-0.037-0.013 0.058-0.031 0.13-0.056 0.214-0.071 0.238-0.185 0.556-0.32 0.9-0.27 0.689-0.619 1.464-0.874 1.892l-0.001 0.001v0.001c-0.822 1.406-1.464 2.202-2.71 3.37-1.808 1.692-4.302 3.147-6.844 4.018l-0.001 0.001-0.873 0.306-0.862-0.306z"></path>
</symbol>
</defs>
</svg>
